<svg xmlns="http://www.w3.org/2000/svg" width="64" height="64" viewBox="0 0 64 64" fill="none">
  <rect width="64" height="64" rx="18" fill="url(#bg)"/>
  <rect x="3" y="3" width="58" height="58" rx="15" stroke="url(#stroke)" stroke-opacity=".55"/>
  <circle cx="32" cy="32" r="18" stroke="#7DEBFF" stroke-width="3"/>
  <circle cx="32" cy="32" r="9" stroke="#7DEBFF" stroke-width="3" stroke-opacity=".85"/>
  <path d="M32 14v36M14 32h36" stroke="#7DEBFF" stroke-width="3" stroke-linecap="round"/>
  <rect x="34" y="39" width="15" height="10" rx="3" fill="#0B1020" fill-opacity=".78"/>
  <path d="M38.2 45.7v-3.9h2.55c1.7 0 2.8.7 2.8 1.95 0 1.25-1.1 1.95-2.8 1.95H38.2Zm1.77-1.2h.63c.84 0 1.22-.27 1.22-.75 0-.49-.38-.76-1.22-.76h-.63v1.51Z" fill="white"/>
  <path d="M44.35 45.7l1.7-3.9h1.27l1.69 3.9h-1.38l-.26-.69H45.9l-.26.69h-1.29Zm1.98-1.66h.62l-.31-.83-.31.83Z" fill="white"/>
  <defs>
    <linearGradient id="bg" x1="6" y1="6" x2="58" y2="58" gradientUnits="userSpaceOnUse">
      <stop stop-color="#16223A"/>
      <stop offset=".55" stop-color="#1A1444"/>
      <stop offset="1" stop-color="#0E343A"/>
    </linearGradient>
    <linearGradient id="stroke" x1="8" y1="8" x2="56" y2="56" gradientUnits="userSpaceOnUse">
      <stop stop-color="#8A7CFF"/>
      <stop offset="1" stop-color="#7DEBFF"/>
    </linearGradient>
  </defs>
</svg>
